<?xml version="1.0" encoding="UTF-8"?>
<svg xmlns="http://www.w3.org/2000/svg" xmlns:xlink="http://www.w3.org/1999/xlink" width="595pt" height="237.4pt" viewBox="0 0 595 237.4" version="1.1">
<defs>
<clipPath id="clip1">
  <path d="M 126 197 L 167 197 L 167 237.398438 L 126 237.398438 Z M 126 197 "/>
</clipPath>
</defs>
<g id="surface1">
<path style=" stroke:none;fill-rule:evenodd;fill:rgb(85.15625%,85.546875%,85.9375%);fill-opacity:1;" d="M 67.402344 106.804688 C 56.199219 102.980469 44.925781 98.367188 33.589844 92.910156 L 50.59375 139.664063 C 61.25 144.328125 71.921875 148.097656 82.605469 151.027344 Z M 67.402344 106.804688 "/>
<g clip-path="url(#clip1)" clip-rule="nonzero">
<path style=" stroke:none;fill-rule:evenodd;fill:rgb(85.15625%,85.546875%,85.9375%);fill-opacity:1;" d="M 156.347656 198.265625 C 146.355469 198.613281 136.296875 198.386719 126.175781 197.519531 L 138.753906 237.308594 C 148.09375 237.148438 157.355469 236.378906 166.558594 235.105469 Z M 156.347656 198.265625 "/>
</g>
<path style=" stroke:none;fill-rule:evenodd;fill:rgb(85.15625%,85.546875%,85.9375%);fill-opacity:1;" d="M 113.480469 157.367188 L 126.175781 197.519531 C 116.542969 196.695313 106.847656 195.253906 97.085938 193.140625 L 82.605469 151.027344 C 92.886719 153.84375 103.179688 155.945313 113.480469 157.367188 Z M 113.480469 157.367188 "/>
<path style=" stroke:none;fill-rule:evenodd;fill:rgb(89.0625%,0%,8.616638%);fill-opacity:1;" d="M 97.085938 193.140625 C 87.078125 190.976563 76.996094 188.058594 66.84375 184.34375 L 83.703125 230.703125 C 93.164063 233.199219 102.539063 234.957031 111.828125 236.019531 Z M 97.085938 193.140625 "/>
<path style=" stroke:none;fill-rule:evenodd;fill:rgb(89.0625%,0%,8.616638%);fill-opacity:1;" d="M 38.164063 21.761719 C 25.421875 15.59375 12.632813 8.386719 -0.203125 -0.0195313 L 15.90625 44.277344 C 28.140625 51.988281 40.402344 58.539063 52.695313 64.023438 Z M 38.164063 21.761719 "/>
<path style=" stroke:none;fill-rule:evenodd;fill:rgb(89.0625%,0%,8.616638%);fill-opacity:1;" d="M 135.0625 121.460938 C 123.574219 120.289063 112.023438 118.527344 100.40625 116.007813 L 113.480469 157.367188 C 124.210938 158.84375 134.945313 159.609375 145.6875 159.796875 Z M 135.0625 121.460938 "/>
<path style=" stroke:none;fill-rule:evenodd;fill:rgb(89.0625%,0%,8.616638%);fill-opacity:1;" d="M 215.855469 190.359375 C 206.121094 192.5 196.335938 194.285156 186.5 195.640625 L 194.726563 229.691406 C 203.820313 227.480469 212.855469 224.863281 221.847656 221.9375 Z M 215.855469 190.359375 "/>
<path style=" stroke:none;fill-rule:evenodd;fill:rgb(89.0625%,0%,8.616638%);fill-opacity:1;" d="M 177.585938 158.75 L 186.5 195.640625 C 176.507813 197.007813 166.457031 197.921875 156.347656 198.265625 L 145.6875 159.796875 C 156.320313 159.980469 166.953125 159.597656 177.585938 158.75 Z M 177.585938 158.75 "/>
<path style=" stroke:none;fill-rule:evenodd;fill:rgb(89.0625%,0%,8.616638%);fill-opacity:1;" d="M 88.101563 77.097656 L 100.40625 116.007813 C 89.464844 113.636719 78.464844 110.578125 67.402344 106.804688 L 52.695313 64.023438 C 64.476563 69.28125 76.277344 73.613281 88.101563 77.097656 Z M 88.101563 77.097656 "/>
<path style=" stroke:none;fill-rule:evenodd;fill:rgb(85.15625%,85.546875%,85.9375%);fill-opacity:1;" d="M 114.59375 47.585938 C 101.558594 44.910156 88.507813 41.421875 75.429688 37.011719 L 88.101563 77.097656 C 100.410156 80.722656 112.738281 83.464844 125.085938 85.460938 Z M 114.59375 47.585938 "/>
<path style=" stroke:none;fill-rule:evenodd;fill:rgb(85.15625%,85.546875%,85.9375%);fill-opacity:1;" d="M 202.90625 122.105469 C 191.664063 122.910156 180.371094 123.351563 169.015625 123.28125 L 177.585938 158.75 C 188.109375 157.914063 198.632813 156.644531 209.148438 155.015625 Z M 202.90625 122.105469 "/>
<path style=" stroke:none;fill-rule:evenodd;fill:rgb(85.15625%,85.546875%,85.9375%);fill-opacity:1;" d="M 275.398438 173.769531 C 265.9375 176.828125 256.441406 179.757813 246.90625 182.46875 L 251 211.464844 C 259.789063 208.039063 268.546875 204.417969 277.285156 200.699219 Z M 275.398438 173.769531 "/>
<path style=" stroke:none;fill-rule:evenodd;fill:rgb(85.15625%,85.546875%,85.9375%);fill-opacity:1;" d="M 160.804688 89.308594 L 169.015625 123.28125 C 157.757813 123.214844 146.441406 122.625 135.0625 121.460938 L 125.085938 85.460938 C 136.976563 87.386719 148.886719 88.621094 160.804688 89.308594 Z M 160.804688 89.308594 "/>
<path style=" stroke:none;fill-rule:evenodd;fill:rgb(85.15625%,85.546875%,85.9375%);fill-opacity:1;" d="M 242.167969 148.90625 L 246.90625 182.46875 C 236.605469 185.402344 226.257813 188.074219 215.855469 190.359375 L 209.148438 155.015625 C 220.164063 153.308594 231.171875 151.230469 242.167969 148.90625 Z M 242.167969 148.90625 "/>
<path style=" stroke:none;fill-rule:evenodd;fill:rgb(89.0625%,0%,8.616638%);fill-opacity:1;" d="M 190.269531 55.515625 C 177.539063 55.257813 164.820313 54.570313 152.101563 53.277344 L 160.804688 89.308594 C 172.785156 89.996094 184.78125 90.128906 196.78125 89.84375 Z M 190.269531 55.515625 "/>
<path style=" stroke:none;fill-rule:evenodd;fill:rgb(89.0625%,0%,8.616638%);fill-opacity:1;" d="M 271.171875 113.464844 C 260.121094 115.324219 249.027344 117.042969 237.875 118.507813 L 242.167969 148.90625 C 252.511719 146.71875 262.839844 144.316406 273.15625 141.796875 Z M 271.171875 113.464844 "/>
<path style=" stroke:none;fill-rule:evenodd;fill:rgb(89.0625%,0%,8.616638%);fill-opacity:1;" d="M 337.832031 152.804688 C 327.105469 156.355469 316.351563 160.039063 305.566406 163.710938 L 305.640625 188.378906 C 315.9375 183.859375 326.21875 179.359375 336.496094 175.015625 Z M 337.832031 152.804688 "/>
<path style=" stroke:none;fill-rule:evenodd;fill:rgb(89.0625%,0%,8.616638%);fill-opacity:1;" d="M 233.542969 87.8125 L 237.875 118.507813 C 226.277344 120.03125 214.621094 121.269531 202.90625 122.105469 L 196.78125 89.84375 C 209.027344 89.550781 221.28125 88.828125 233.542969 87.8125 Z M 233.542969 87.8125 "/>
<path style=" stroke:none;fill-rule:evenodd;fill:rgb(89.0625%,0%,8.616638%);fill-opacity:1;" d="M 305.472656 133.660156 L 305.566406 163.710938 C 295.542969 167.121094 285.488281 170.511719 275.398438 173.769531 L 273.15625 141.796875 C 283.945313 139.164063 294.71875 136.414063 305.472656 133.660156 Z M 305.472656 133.660156 "/>
<path style=" stroke:none;fill-rule:evenodd;fill:rgb(85.15625%,85.546875%,85.9375%);fill-opacity:1;" d="M 266.933594 53.023438 C 254.234375 53.898438 241.570313 54.636719 228.925781 55.105469 L 233.542969 87.8125 C 245.398438 86.828125 257.257813 85.578125 269.117188 84.179688 Z M 266.933594 53.023438 "/>
<path style=" stroke:none;fill-rule:evenodd;fill:rgb(85.15625%,85.546875%,85.9375%);fill-opacity:1;" d="M 340.945313 100.925781 C 329.144531 102.992188 317.292969 105.191406 305.390625 107.382813 L 305.472656 133.660156 C 316.839844 130.742188 328.183594 127.832031 339.496094 125.054688 Z M 340.945313 100.925781 "/>
<path style=" stroke:none;fill-rule:evenodd;fill:rgb(85.15625%,85.546875%,85.9375%);fill-opacity:1;" d="M 400.503906 134.707031 C 389.1875 137.28125 377.859375 140.359375 366.507813 143.738281 L 363.078125 164.269531 C 374.214844 160.011719 385.367188 156.109375 396.550781 152.765625 Z M 400.503906 134.707031 "/>
<path style=" stroke:none;fill-rule:evenodd;fill:rgb(85.15625%,85.546875%,85.9375%);fill-opacity:1;" d="M 305.304688 79.625 L 305.390625 107.382813 C 294.03125 109.46875 282.628906 111.539063 271.171875 113.464844 L 269.117188 84.179688 C 281.179688 82.757813 293.242188 81.199219 305.304688 79.625 Z M 305.304688 79.625 "/>
<path style=" stroke:none;fill-rule:evenodd;fill:rgb(85.15625%,85.546875%,85.9375%);fill-opacity:1;" d="M 370.835938 117.824219 L 366.507813 143.738281 C 356.964844 146.582031 347.410156 149.632813 337.832031 152.804688 L 339.496094 125.054688 C 349.972656 122.484375 360.421875 120.039063 370.835938 117.824219 Z M 370.835938 117.824219 "/>
<path style=" stroke:none;fill-rule:evenodd;fill:rgb(89.0625%,0%,8.616638%);fill-opacity:1;" d="M 344.15625 47.464844 C 331.117188 48.238281 318.140625 49.191406 305.210938 50.175781 L 305.304688 79.625 C 317.710938 78.003906 330.113281 76.378906 342.511719 74.890625 Z M 344.15625 47.464844 "/>
<path style=" stroke:none;fill-rule:evenodd;fill:rgb(89.0625%,0%,8.616638%);fill-opacity:1;" d="M 409.964844 91.488281 C 398.207031 92.441406 386.40625 93.832031 374.5625 95.519531 L 370.835938 117.824219 C 382.464844 115.351563 394.050781 113.183594 405.59375 111.457031 Z M 409.964844 91.488281 "/>
<path style=" stroke:none;fill-rule:evenodd;fill:rgb(89.0625%,0%,8.616638%);fill-opacity:1;" d="M 454.351563 126.933594 C 444.386719 127.410156 434.429688 128.515625 424.46875 130.085938 L 417.320313 147.265625 C 426.585938 145.140625 435.886719 143.484375 445.226563 142.402344 Z M 454.351563 126.933594 "/>
<path style=" stroke:none;fill-rule:evenodd;fill:rgb(89.0625%,0%,8.616638%);fill-opacity:1;" d="M 378.644531 71.09375 L 374.5625 95.519531 C 363.398438 97.109375 352.195313 98.953125 340.945313 100.925781 L 342.511719 74.890625 C 354.5625 73.445313 366.605469 72.132813 378.644531 71.09375 Z M 378.644531 71.09375 "/>
<path style=" stroke:none;fill-rule:evenodd;fill:rgb(89.0625%,0%,8.616638%);fill-opacity:1;" d="M 433.554688 108.234375 L 424.46875 130.085938 C 416.480469 131.34375 408.496094 132.890625 400.503906 134.707031 L 405.59375 111.457031 C 414.945313 110.058594 424.265625 108.957031 433.554688 108.234375 Z M 433.554688 108.234375 "/>
<path style=" stroke:none;fill-rule:evenodd;fill:rgb(85.15625%,85.546875%,85.9375%);fill-opacity:1;" d="M 419.894531 46.125 C 407.476563 45.660156 395.136719 45.609375 382.859375 45.855469 L 378.644531 71.09375 C 390.742188 70.046875 402.832031 69.265625 414.90625 68.90625 Z M 419.894531 46.125 "/>
<path style=" stroke:none;fill-rule:evenodd;fill:rgb(85.15625%,85.546875%,85.9375%);fill-opacity:1;" d="M 475.078125 91.796875 C 463.777344 90.585938 452.453125 90.074219 441.09375 90.113281 L 433.554688 108.234375 C 444.382813 107.390625 455.164063 107.046875 465.890625 107.367188 Z M 475.078125 91.796875 "/>
<path style=" stroke:none;fill-rule:evenodd;fill:rgb(85.15625%,85.546875%,85.9375%);fill-opacity:1;" d="M 512.535156 132.027344 C 502.804688 129.722656 493.089844 128.195313 483.390625 127.390625 L 472.089844 140.992188 C 481.078125 141.109375 490.117188 141.859375 499.214844 143.320313 Z M 512.535156 132.027344 "/>
<path style=" stroke:none;fill-rule:evenodd;fill:rgb(85.15625%,85.546875%,85.9375%);fill-opacity:1;" d="M 449.804688 69.167969 L 441.09375 90.113281 C 430.746094 90.148438 420.371094 90.648438 409.964844 91.488281 L 414.90625 68.90625 C 426.554688 68.5625 438.1875 68.617188 449.804688 69.167969 Z M 449.804688 69.167969 "/>
<path style=" stroke:none;fill-rule:evenodd;fill:rgb(85.15625%,85.546875%,85.9375%);fill-opacity:1;" d="M 497.523438 110.382813 L 483.390625 127.390625 C 473.703125 126.585938 464.023438 126.472656 454.351563 126.933594 L 465.890625 107.367188 C 476.488281 107.6875 487.035156 108.667969 497.523438 110.382813 Z M 497.523438 110.382813 "/>
<path style=" stroke:none;fill-rule:evenodd;fill:rgb(89.0625%,0%,8.616638%);fill-opacity:1;" d="M 522.386719 80.460938 L 508.207031 97.527344 C 497.1875 94.867188 486.144531 92.984375 475.078125 91.796875 L 486.320313 72.738281 C 498.363281 74.566406 510.390625 77.097656 522.386719 80.460938 Z M 522.386719 80.460938 "/>
<path style=" stroke:none;fill-rule:evenodd;fill:rgb(89.0625%,0%,8.616638%);fill-opacity:1;" d="M 496.664063 55.195313 C 483.746094 52.480469 470.925781 50.453125 458.199219 48.988281 L 449.804688 69.167969 C 461.996094 69.746094 474.167969 70.890625 486.320313 72.738281 Z M 496.664063 55.195313 "/>
<path style=" stroke:none;fill-rule:evenodd;fill:rgb(89.0625%,0%,8.616638%);fill-opacity:1;" d="M 540.9375 107.945313 C 530.046875 103.589844 519.136719 100.167969 508.207031 97.527344 L 497.523438 110.382813 C 508.097656 112.109375 518.613281 114.601563 529.070313 118.007813 Z M 540.9375 107.945313 "/>
<path style=" stroke:none;fill-rule:evenodd;fill:rgb(89.0625%,0%,8.616638%);fill-opacity:1;" d="M 567.28125 134.875 L 552.6875 146.371094 C 539.253906 139.875 525.878906 135.1875 512.535156 132.027344 L 529.070313 118.007813 C 541.902344 122.191406 554.644531 127.71875 567.28125 134.875 Z M 567.28125 134.875 "/>
<path style=" stroke:none;fill-rule:evenodd;fill:rgb(85.15625%,85.546875%,85.9375%);fill-opacity:1;" d="M 573.800781 80.082031 C 560.746094 74.296875 547.808594 69.40625 534.980469 65.304688 L 522.386719 80.460938 C 534.394531 83.820313 546.375 88.027344 558.324219 93.203125 Z M 573.800781 80.082031 "/>
<path style=" stroke:none;fill-rule:evenodd;fill:rgb(85.15625%,85.546875%,85.9375%);fill-opacity:1;" d="M 595.480469 112.671875 L 577.882813 126.527344 C 565.585938 119.023438 553.273438 112.882813 540.9375 107.945313 L 558.324219 93.203125 C 570.742188 98.582031 583.128906 105.023438 595.480469 112.671875 Z M 595.480469 112.671875 "/>
<path style=" stroke:none;fill-rule:evenodd;fill:rgb(100%,100%,100%);fill-opacity:1;" d="M 463.523438 141.238281 L 495.519531 116.527344 C 493.464844 115.199219 491.011719 114.839844 488.574219 114.917969 L 488.535156 114.921875 L 472.539063 114.921875 C 468.476563 115.007813 464.308594 116.347656 461.050781 118.796875 C 459.003906 120.339844 456.609375 122.972656 456.601563 125.710938 L 456.5625 131.523438 L 450.265625 131.523438 L 450.265625 102.972656 L 505.324219 102.972656 L 505.324219 86.816406 L 510.894531 86.816406 L 510.894531 91.605469 C 510.882813 98.410156 516.527344 103.257813 523.128906 103.269531 L 552.441406 103.269531 L 552.441406 91.980469 L 557.75 91.980469 L 557.75 96.300781 C 557.761719 100.527344 561 103.203125 565.128906 103.175781 L 585.546875 103.175781 L 585.546875 124.699219 L 579.980469 124.699219 L 579.980469 120.652344 C 579.871094 115.316406 573.144531 112.726563 568.609375 112.730469 L 550.929688 112.730469 L 550.929688 118.394531 L 577.054688 120.324219 L 577.054688 134.449219 L 586.964844 134.449219 L 586.964844 155.53125 L 581.164063 155.671875 L 581.164063 150.609375 C 581.160156 146.882813 575.6875 143.65625 572.371094 143.710938 L 561.480469 143.710938 L 561.480469 155.585938 L 556.046875 155.585938 L 556.046875 152.308594 C 556.046875 147.804688 552.035156 144.382813 547.644531 144.390625 L 527.617188 144.390625 L 527.617188 159.242188 L 498.90625 159.242188 L 498.90625 175.699219 L 493.335938 175.699219 L 493.335938 170.945313 C 493.351563 168.019531 491.609375 165.128906 489.546875 163.164063 C 486.925781 160.671875 483.46875 159.246094 479.84375 159.242188 L 446.125 159.242188 L 446.125 156.230469 L 445.21875 156.230469 C 444.863281 156.230469 444.507813 156.230469 444.152344 156.230469 L 441.882813 156.230469 L 441.882813 152.601563 C 441.886719 150.410156 440.960938 148.410156 439.394531 146.898438 C 438.230469 145.773438 436.433594 144.726563 434.765625 144.726563 L 430.984375 144.726563 L 430.984375 139.285156 L 434.914063 139.285156 C 436.101563 139.28125 439.503906 138.800781 439.125 136.902344 C 439.089844 136.71875 438.964844 136.179688 438.835938 136.003906 C 438.710938 135.957031 438.417969 135.949219 438.304688 135.949219 L 413.757813 135.949219 L 412.792969 137.859375 C 413.003906 138.238281 414.007813 138.738281 414.351563 138.882813 C 415.03125 139.171875 416.09375 139.488281 416.832031 139.488281 L 421.292969 139.476563 L 421.292969 145.03125 L 401.109375 145.03125 L 402.773438 146.644531 L 402.847656 146.734375 C 408.140625 153.039063 414.773438 155.71875 422.996094 154.996094 L 425.460938 154.78125 L 425.460938 161.382813 L 368.628906 161.382813 L 368.628906 155.5 L 370.847656 155.453125 C 375.230469 155.359375 379.457031 154.824219 383.460938 152.941406 C 383.78125 152.792969 384.644531 152.367188 385.105469 152.015625 C 384.621094 151.324219 383.355469 150.109375 382.996094 149.75 L 368.855469 136.085938 C 362.308594 130.78125 353.90625 131.453125 346.992188 135.703125 L 339.230469 140.566406 L 339.230469 182.070313 L 332.832031 182.070313 L 332.832031 176.097656 C 332.683594 166.03125 323.457031 161.382813 314.414063 161.382813 L 296.808594 161.382813 L 296.808594 155.21875 L 302.066406 155.21875 C 309.585938 155.007813 319.058594 151.8125 322.027344 144.179688 C 322.566406 142.785156 322.839844 141.320313 322.839844 139.824219 L 322.839844 116.800781 C 322.90625 105.542969 312.765625 98.695313 302.324219 98.625 L 296.574219 98.625 L 296.574219 92.230469 L 322.605469 92.230469 L 322.605469 72.011719 L 328.976563 72.011719 L 329 74.25 C 329.050781 78.464844 329.75 83.066406 332.304688 86.546875 C 336.585938 92.386719 344.863281 93.179688 351.519531 92.929688 L 360.121094 92.609375 L 352.792969 97.128906 C 347.097656 100.640625 338.863281 107.007813 338.996094 114.449219 L 338.996094 124.007813 L 373.894531 103.5 L 360.53125 92.695313 L 421.042969 92.695313 L 421.042969 98.859375 L 414.839844 98.859375 C 412.210938 98.878906 409.660156 99.429688 407.328125 100.664063 L 374.855469 119.589844 L 395.179688 139.285156 L 396.46875 139.285156 C 398.296875 139.28125 399.773438 137.828125 400.816406 136.464844 L 415.953125 112.890625 C 416.222656 112.46875 416.976563 111.140625 416.707031 110.597656 C 416.320313 109.824219 413.925781 109.695313 413.21875 109.695313 L 408.886719 109.660156 L 408.886719 104.152344 L 415.398438 104.128906 C 418.234375 104.140625 422.21875 103.914063 424.503906 102.015625 C 426.148438 100.648438 426.65625 98.613281 426.726563 96.558594 L 426.726563 92.511719 L 432.191406 92.511719 L 432.191406 104.316406 L 446.269531 104.316406 L 446.269531 109.761719 L 442.203125 109.761719 C 441.199219 109.78125 440.070313 110.035156 439.117188 110.34375 C 438.492188 110.550781 436.609375 111.3125 436.136719 111.972656 L 448.964844 132.199219 C 451.355469 136.128906 454.210938 139.433594 459.136719 139.433594 L 463.523438 139.433594 Z M 458.613281 145.03125 L 447.484375 145.03125 C 447.484375 147.894531 447.484375 150.761719 447.484375 153.625 Z M 480.65625 144.863281 C 483.234375 146.351563 485.578125 146.875 488.789063 146.851563 L 506.222656 146.851563 C 507.789063 146.851563 509.359375 146.621094 510.863281 146.195313 C 515.933594 144.765625 521.476563 140.632813 521.453125 134.855469 L 521.453125 130.988281 L 527.617188 130.988281 L 527.617188 138.566406 L 529.871094 138.566406 C 534.273438 138.566406 539.503906 136.824219 539.445313 131.574219 L 539.445313 116.546875 C 539.351563 112.167969 535.015625 109.914063 531.253906 109.089844 C 530.472656 108.957031 528.410156 108.441406 527.753906 108.546875 Z M 571.386719 126.441406 L 551.246094 128.304688 C 552.765625 132.519531 556.3125 134.722656 561.207031 134.578125 L 561.289063 134.578125 L 561.371094 134.582031 C 563.90625 134.691406 566.53125 133.875 568.554688 132.339844 C 570.015625 131.230469 571.425781 129.484375 571.414063 127.550781 Z M 168.292969 106.003906 L 168.292969 102.4375 L 179.070313 102.4375 C 186.15625 102.328125 192.636719 99.652344 192.648438 91.585938 L 192.648438 87.214844 L 198.707031 87.214844 L 198.707031 102.894531 L 203.90625 102.894531 L 225.039063 135.097656 L 238.941406 113.496094 C 239.117188 113.222656 239.671875 112.332031 239.746094 111.933594 C 239.476563 111.566406 238.394531 110.875 238.078125 110.679688 C 236.101563 109.429688 233.785156 108.800781 231.449219 108.800781 L 225.074219 108.800781 L 225.074219 102.589844 L 244.40625 102.589844 L 244.40625 87.0625 L 250.765625 87.0625 L 250.765625 91.15625 C 250.777344 96.914063 256.378906 102.640625 262.195313 102.589844 L 279.714844 102.617188 C 285.015625 102.648438 288.601563 99.996094 288.625 94.46875 L 288.625 89.933594 L 293.972656 90.015625 L 293.972656 103.035156 L 313.695313 103.035156 L 313.695313 108.683594 L 309.066406 108.683594 C 303.976563 108.683594 300.917969 113.710938 300.917969 118.359375 L 300.917969 131.132813 C 300.933594 136.105469 303.824219 140.863281 309.203125 140.960938 L 313.558594 140.960938 L 313.558594 146.464844 L 304.753906 146.464844 C 300.570313 146.445313 294.539063 150.09375 294.527344 154.699219 L 294.527344 158.6875 L 288.941406 158.6875 L 288.941406 146.609375 L 273.1875 146.609375 L 273.1875 140.949219 L 279.34375 140.949219 C 285.285156 140.949219 288.839844 136.714844 288.882813 130.996094 L 288.882813 118.972656 C 288.917969 113.28125 283.019531 108.3125 277.542969 108.324219 L 272.695313 108.34375 C 272.382813 108.34375 272.0625 108.363281 271.753906 108.402344 C 266.09375 109.121094 261.765625 115.855469 261.726563 121.28125 L 261.726563 134.863281 L 277.558594 134.863281 L 277.558594 140.613281 L 272.695313 140.613281 C 271.683594 140.609375 270.675781 140.761719 269.707031 141.058594 C 264.511719 142.644531 261.640625 147.667969 261.726563 152.921875 L 261.726563 171.667969 L 256.125 171.667969 L 256.125 169.402344 C 256.121094 161.949219 253.65625 156.5625 245.457031 156.597656 L 228.726563 156.597656 L 228.726563 153.039063 L 226.453125 156.597656 L 202.390625 156.597656 L 202.390625 150.84375 L 208.617188 150.84375 C 211.96875 150.84375 215.675781 149.785156 217.660156 146.972656 L 200.992188 122.675781 L 200.992188 171.667969 L 195.085938 171.667969 L 195.085938 167.597656 C 194.90625 160.046875 188.957031 156.785156 181.976563 156.75 L 169.894531 156.75 L 169.894531 157.917969 L 167.628906 157.917969 C 167.273438 157.917969 166.917969 157.917969 166.5625 157.917969 L 164.296875 157.917969 L 164.296875 154.285156 C 164.296875 152.09375 163.371094 150.097656 161.804688 148.582031 C 160.640625 147.457031 158.84375 146.410156 157.179688 146.414063 L 153.394531 146.414063 L 153.394531 140.96875 L 157.324219 140.96875 C 158.511719 140.964844 161.914063 140.484375 161.539063 138.589844 C 161.5 138.40625 161.378906 137.863281 161.25 137.691406 C 161.121094 137.640625 160.828125 137.632813 160.714844 137.632813 L 136.167969 137.632813 L 135.203125 139.542969 C 135.417969 139.925781 136.417969 140.425781 136.761719 140.570313 C 137.441406 140.855469 138.503906 141.171875 139.242188 141.171875 L 143.703125 141.164063 L 143.703125 146.714844 L 118.113281 146.714844 L 121.816406 150.304688 L 121.890625 150.390625 C 128.050781 157.738281 135.800781 160.867188 145.375 160.027344 L 147.839844 159.8125 L 147.839844 166.695313 L 83.097656 166.695313 L 83.097656 160.601563 L 85.316406 160.554688 C 90.414063 160.441406 95.324219 159.820313 99.976563 157.632813 C 100.394531 157.433594 101.707031 156.785156 102.175781 156.324219 C 101.753906 155.550781 99.976563 153.839844 99.535156 153.402344 L 83.242188 137.65625 C 75.59375 131.449219 65.753906 132.207031 57.664063 137.183594 L 48.566406 142.886719 L 48.566406 190.511719 L 41.890625 190.511719 L 41.890625 183.976563 C 41.714844 172.191406 30.945313 166.695313 20.339844 166.695313 L 0.414063 166.695313 L 0.414063 160.285156 L 6.128906 160.285156 C 11.273438 160.144531 16.578125 158.953125 21.078125 156.394531 C 24.707031 154.332031 27.886719 151.304688 29.421875 147.351563 C 30.0625 145.707031 30.382813 143.980469 30.382813 142.214844 L 30.382813 115.714844 C 30.460938 102.558594 18.636719 94.527344 6.421875 94.445313 L 0.144531 94.445313 L 0.144531 87.769531 L 30.113281 87.769531 L 30.113281 64.488281 L 36.765625 64.488281 L 36.789063 66.730469 C 36.847656 71.660156 37.675781 77.015625 40.660156 81.085938 C 45.664063 87.914063 55.277344 88.863281 63.070313 88.574219 L 71.675781 88.253906 L 64.34375 92.769531 C 57.664063 96.890625 48.144531 104.292969 48.296875 113.007813 L 48.296875 124.605469 L 89.421875 100.445313 L 74.40625 88.304688 L 142.757813 88.304688 L 142.757813 94.710938 L 135.953125 94.710938 C 132.871094 94.738281 129.875 95.386719 127.144531 96.835938 L 89.359375 118.855469 L 114.191406 142.914063 L 114.191406 140.96875 L 118.878906 140.96875 C 120.707031 140.964844 122.183594 139.511719 123.226563 138.152344 L 138.363281 114.574219 C 138.632813 114.152344 139.386719 112.824219 139.117188 112.28125 C 138.730469 111.511719 136.335938 111.378906 135.628906 111.382813 L 131.296875 111.347656 L 131.296875 105.835938 L 137.808594 105.816406 C 140.644531 105.828125 144.628906 105.597656 146.914063 103.699219 C 148.558594 102.332031 149.066406 100.300781 149.136719 98.242188 L 149.136719 94.195313 L 154.601563 94.195313 L 154.601563 106.003906 Z M 168.679688 108.34375 L 168.679688 111.445313 L 164.613281 111.445313 C 163.609375 111.464844 162.480469 111.71875 161.527344 112.03125 C 160.902344 112.234375 159.019531 112.996094 158.546875 113.660156 L 171.375 133.882813 C 173.765625 137.8125 176.621094 141.117188 181.546875 141.121094 L 185.933594 141.121094 L 185.933594 143.726563 C 186.710938 142.269531 187.160156 140.617188 187.167969 138.800781 L 187.167969 120.125 C 187.148438 117.125 185.285156 114.207031 183.148438 112.226563 C 180.617188 109.882813 177.242188 108.339844 173.757813 108.34375 Z M 183.625 146.714844 L 169.894531 146.714844 C 169.894531 148.042969 169.894531 149.367188 169.894531 150.691406 L 173.300781 150.691406 C 177.058594 150.6875 180.929688 149.25 183.625 146.714844 Z M 230.222656 150.691406 L 233.59375 150.691406 C 237.527344 150.71875 241.523438 149.601563 244.582031 147.054688 C 246.738281 145.257813 248.507813 142.605469 248.515625 139.714844 L 248.515625 122.058594 Z M 432.058594 126.40625 L 426.125 116.90625 L 421.054688 125.160156 C 421.792969 125.832031 423.023438 126.414063 423.90625 126.40625 Z M 154.46875 128.089844 L 148.535156 118.59375 L 143.464844 126.84375 C 144.207031 127.519531 145.433594 128.097656 146.316406 128.089844 Z M 154.46875 128.089844 "/>
<path style=" stroke:none;fill-rule:evenodd;fill:rgb(0.392151%,8.616638%,10.205078%);fill-opacity:1;" d="M 2.414063 92.175781 L 2.414063 90.035156 L 32.382813 90.035156 L 32.382813 66.757813 L 34.523438 66.757813 C 34.699219 81.652344 41.566406 91.644531 63.15625 90.839844 C 56.644531 94.851563 45.851563 102.882813 46.03125 113.050781 L 46.03125 128.570313 L 93.394531 100.738281 L 80.816406 90.570313 L 140.488281 90.570313 L 140.488281 92.445313 L 135.941406 92.445313 C 132.152344 92.476563 128.851563 93.355469 126.039063 94.851563 L 85.632813 118.402344 L 120.152344 151.851563 C 126.550781 159.476563 134.890625 163.222656 145.574219 162.285156 L 145.574219 164.425781 L 85.367188 164.425781 L 85.367188 162.820313 C 91.519531 162.6875 96.394531 161.824219 100.941406 159.683594 C 106.394531 157.117188 104.917969 155.53125 101.113281 151.773438 L 84.75 135.960938 C 76.414063 129.136719 65.53125 129.683594 56.464844 135.257813 L 46.296875 141.628906 L 46.296875 188.242188 L 44.15625 188.242188 L 44.15625 183.960938 C 43.976563 171.117188 32.5625 164.425781 20.339844 164.425781 L 2.679688 164.425781 L 2.679688 162.554688 L 6.160156 162.554688 C 21.054688 162.152344 32.648438 153.679688 32.648438 142.214844 L 32.648438 115.726563 C 32.738281 100.917969 19.449219 92.265625 6.425781 92.175781 Z M 298.84375 96.359375 L 298.84375 94.5 L 324.875 94.5 L 324.875 74.277344 L 326.734375 74.277344 C 326.886719 87.21875 332.851563 95.898438 351.601563 95.195313 C 345.949219 98.683594 336.574219 105.65625 336.726563 114.488281 L 336.726563 127.96875 L 377.867188 103.796875 L 366.945313 94.964844 L 418.777344 94.964844 L 418.777344 96.589844 L 414.824219 96.589844 C 411.535156 96.617188 408.667969 97.382813 406.222656 98.683594 L 371.128906 119.136719 L 394.261719 141.550781 L 396.46875 141.550781 C 399.03125 141.546875 401.070313 139.886719 402.675781 137.765625 L 417.863281 114.113281 C 420.5 110.007813 418.519531 107.414063 413.230469 107.429688 L 411.152344 107.414063 L 411.152344 106.410156 L 415.390625 106.398438 C 422.351563 106.425781 428.730469 104.894531 428.992188 96.59375 L 428.992188 94.777344 L 429.921875 94.777344 L 429.921875 106.585938 L 444 106.585938 L 444 107.492188 L 442.183594 107.492188 C 438.628906 107.550781 432.257813 110.054688 434.160156 113.09375 L 447.027344 133.378906 C 450.007813 138.273438 453.515625 141.699219 459.136719 141.703125 L 461.257813 141.703125 L 461.257813 142.761719 L 445.21875 142.761719 C 445.21875 146.496094 445.21875 150.230469 445.21875 153.964844 C 444.863281 153.964844 444.507813 153.964844 444.152344 153.964844 L 444.152344 152.601563 C 444.15625 146.570313 438.789063 142.457031 434.765625 142.460938 L 433.253906 142.460938 L 433.253906 141.550781 L 434.917969 141.550781 C 439.195313 141.539063 441.90625 139.257813 441.351563 136.460938 C 440.960938 134.492188 440.152344 133.679688 438.304688 133.679688 L 412.363281 133.679688 L 410.726563 136.921875 C 409.390625 139.964844 414.679688 141.757813 416.835938 141.757813 L 419.023438 141.75 L 419.023438 142.761719 L 395.507813 142.761719 L 401.113281 148.191406 C 406.671875 154.816406 413.914063 158.070313 423.191406 157.257813 L 423.191406 159.113281 L 370.894531 159.113281 L 370.894531 157.722656 C 376.242188 157.605469 380.472656 156.855469 384.425781 154.996094 C 389.160156 152.765625 387.878906 151.390625 384.574219 148.125 L 370.359375 134.390625 C 363.121094 128.460938 353.667969 128.9375 345.792969 133.78125 L 336.960938 139.3125 L 336.960938 179.800781 L 335.101563 179.800781 L 335.101563 176.082031 C 334.945313 164.925781 325.03125 159.113281 314.414063 159.113281 L 299.074219 159.113281 L 299.074219 157.488281 L 302.097656 157.488281 C 315.035156 157.140625 325.105469 149.78125 325.105469 139.824219 L 325.105469 116.8125 C 325.183594 103.953125 313.640625 96.4375 302.328125 96.359375 Z M 436.152344 128.671875 L 423.910156 128.671875 C 422.046875 128.6875 419.847656 127.4375 418.855469 126.101563 C 418.238281 125.269531 418.414063 125.121094 418.910156 124.320313 L 425.660156 113.332031 C 425.933594 112.828125 426.320313 112.894531 426.5625 113.332031 Z M 133.5625 108.097656 L 133.5625 109.097656 L 135.644531 109.113281 C 140.929688 109.097656 142.910156 111.695313 140.273438 115.800781 L 125.085938 139.453125 C 123.480469 141.570313 121.441406 143.230469 118.878906 143.238281 L 116.457031 143.238281 L 116.457031 144.449219 L 141.433594 144.449219 L 141.433594 143.4375 L 139.246094 143.441406 C 137.089844 143.441406 131.804688 141.648438 133.136719 138.605469 L 134.773438 135.363281 L 160.714844 135.363281 C 162.5625 135.363281 163.371094 136.175781 163.761719 138.148438 C 164.316406 140.941406 161.605469 143.226563 157.328125 143.234375 L 155.664063 143.234375 L 155.664063 144.144531 L 157.175781 144.144531 C 161.203125 144.140625 166.566406 148.253906 166.5625 154.285156 L 166.5625 155.648438 C 166.917969 155.648438 167.273438 155.648438 167.628906 155.648438 C 167.628906 151.914063 167.628906 148.179688 167.628906 144.445313 L 183.667969 144.445313 L 183.667969 143.386719 L 181.546875 143.386719 C 175.925781 143.382813 172.417969 139.957031 169.4375 135.0625 L 156.570313 114.777344 C 154.667969 111.738281 161.039063 109.234375 164.59375 109.179688 L 166.410156 109.179688 L 166.410156 108.269531 L 152.332031 108.269531 L 152.332031 96.464844 L 151.402344 96.464844 L 151.402344 98.277344 C 151.140625 106.578125 144.761719 108.109375 137.800781 108.082031 Z M 158.5625 130.359375 L 146.320313 130.359375 C 144.457031 130.375 142.257813 129.125 141.265625 127.785156 C 140.648438 126.953125 140.828125 126.808594 141.320313 126.003906 L 148.070313 115.015625 C 148.34375 114.511719 148.730469 114.578125 148.972656 115.015625 Z M 196.4375 89.484375 L 194.917969 89.484375 L 194.917969 91.585938 C 194.902344 100.671875 187.898438 104.574219 179.085938 104.707031 L 170.5625 104.707031 L 170.5625 106.074219 L 173.757813 106.074219 C 182.046875 106.070313 189.394531 113.367188 189.4375 120.113281 L 189.4375 138.804688 C 189.398438 147.054688 181.664063 152.953125 173.300781 152.960938 L 169.953125 152.960938 L 169.953125 154.480469 L 181.976563 154.480469 C 191.1875 154.527344 197.175781 159.519531 197.351563 167.574219 L 197.351563 169.398438 L 198.722656 169.398438 L 198.722656 115.363281 L 220.339844 146.871094 C 218.550781 150.613281 214.320313 153.109375 208.617188 153.113281 L 204.660156 153.113281 L 204.660156 154.328125 L 225.207031 154.328125 L 250.78125 114.296875 L 250.78125 139.71875 C 250.765625 146.207031 243.871094 153.027344 233.582031 152.960938 L 230.992188 152.960938 L 230.992188 154.328125 L 245.453125 154.328125 C 254.820313 154.292969 258.386719 160.476563 258.394531 169.398438 L 259.457031 169.398438 L 259.457031 152.960938 C 259.316406 144.273438 265.71875 138.320313 272.703125 138.347656 L 275.289063 138.347656 L 275.289063 137.128906 L 259.457031 137.128906 L 259.457031 121.277344 C 259.511719 113.753906 265.816406 106.035156 272.703125 106.074219 L 277.535156 106.054688 C 284.164063 106.042969 291.195313 111.921875 291.148438 118.984375 L 291.148438 131 C 291.101563 137.273438 287.167969 143.214844 279.34375 143.214844 L 275.453125 143.214844 L 275.453125 144.339844 L 291.207031 144.339844 L 291.207031 156.417969 L 292.261719 156.417969 L 292.261719 154.695313 C 292.273438 148.90625 299.144531 144.175781 304.761719 144.195313 L 311.289063 144.195313 L 311.289063 143.230469 L 309.183594 143.230469 C 302.441406 143.117188 298.667969 137.261719 298.648438 131.140625 L 298.648438 118.359375 C 298.648438 112.109375 302.957031 106.414063 309.066406 106.414063 L 311.429688 106.414063 L 311.429688 105.304688 L 291.703125 105.304688 L 291.703125 92.246094 L 290.890625 92.234375 L 290.890625 94.46875 C 290.863281 101.453125 286.0625 104.921875 279.703125 104.886719 L 262.199219 104.859375 C 255.09375 104.917969 248.511719 98.136719 248.5 91.160156 L 248.5 89.332031 L 246.671875 89.332031 L 246.671875 104.859375 L 227.339844 104.859375 L 227.339844 106.53125 L 231.449219 106.53125 C 234.527344 106.53125 237.214844 107.453125 239.289063 108.761719 C 242.292969 110.65625 242.832031 111.648438 240.847656 114.726563 L 225.058594 139.261719 L 202.679688 105.164063 L 196.4375 105.164063 Z M 454.3125 129.253906 L 452.535156 129.253906 L 452.535156 105.242188 L 507.589844 105.242188 L 507.589844 89.082031 L 508.625 89.082031 L 508.625 91.601563 C 508.613281 99.929688 515.566406 105.523438 523.128906 105.535156 L 554.710938 105.535156 L 554.710938 94.246094 L 555.480469 94.246094 L 555.480469 96.308594 C 555.496094 101.449219 559.390625 105.484375 565.132813 105.445313 L 583.28125 105.445313 L 583.28125 122.429688 L 582.25 122.429688 L 582.25 120.628906 C 582.136719 114.402344 575.1875 110.460938 568.609375 110.464844 L 548.660156 110.464844 L 548.660156 120.5 L 574.785156 122.429688 L 574.785156 123.847656 L 548.402344 126.292969 C 549.613281 133.757813 555.011719 137.027344 561.273438 136.84375 C 567.75 137.128906 573.734375 132.472656 573.683594 127.511719 L 573.628906 125.390625 L 574.785156 125.390625 L 574.785156 136.714844 L 584.695313 136.714844 L 584.695313 153.316406 L 583.429688 153.347656 L 583.429688 150.609375 C 583.425781 145.375 576.710938 141.371094 572.335938 141.441406 L 559.214844 141.441406 L 559.214844 153.316406 L 558.3125 153.316406 L 558.3125 152.308594 C 558.316406 146.730469 553.484375 142.109375 547.644531 142.121094 L 527.425781 142.121094 L 527.425781 140.835938 L 529.871094 140.835938 C 537.039063 140.835938 541.773438 137.175781 541.710938 131.570313 L 541.710938 116.527344 C 541.636719 112.40625 538.546875 108.347656 531.671875 106.859375 C 530.320313 106.671875 527.664063 105.761719 526.492188 106.652344 L 478.730469 143.488281 C 477.765625 144.375 477.347656 145.09375 478.433594 146.15625 C 481.257813 148.007813 484.085938 149.152344 488.792969 149.121094 L 506.222656 149.121094 C 514.75 149.128906 523.75 143.011719 523.722656 134.851563 L 523.722656 133.257813 L 525.351563 133.257813 L 525.351563 156.976563 L 496.640625 156.976563 L 496.640625 173.429688 L 495.601563 173.429688 L 495.601563 170.957031 C 495.636719 164.4375 488.839844 156.976563 479.84375 156.976563 L 448.390625 156.976563 L 448.390625 155.789063 L 497.527344 117.839844 C 499.214844 116.515625 498.617188 115.953125 497.527344 115.171875 C 495.058594 113.25 491.984375 112.539063 488.5 112.652344 L 472.515625 112.652344 C 462.535156 112.855469 454.351563 119.660156 454.335938 125.699219 Z M 454.3125 129.253906 "/>
<path style=" stroke:none;fill-rule:evenodd;fill:rgb(0.392151%,8.616638%,10.205078%);fill-opacity:1;" d="M 346.121094 192.644531 L 370.324219 192.644531 L 370.324219 203.035156 L 362.675781 203.035156 L 370.324219 210.257813 C 371.476563 211.679688 369.980469 212.664063 369.144531 211.878906 L 356.105469 203.035156 L 346.855469 203.035156 L 346.855469 210.773438 L 343.691406 210.773438 L 343.691406 192.644531 Z M 356.125 196.84375 L 352.695313 200.417969 L 347.589844 200.417969 L 347.589844 195.261719 L 366.792969 195.261719 L 366.792969 200.417969 L 359.910156 200.417969 Z M 393.316406 211.300781 L 393.316406 202.929688 L 413.5 202.929688 L 413.5 211.300781 L 415.324219 211.300781 L 416.417969 202.929688 L 424.167969 202.929688 L 424.167969 199.269531 L 416.894531 199.269531 L 417.824219 192.148438 L 389.1875 192.148438 L 390.113281 199.269531 L 382.554688 199.269531 L 382.554688 202.929688 L 390.59375 202.929688 L 391.683594 211.300781 Z M 393.316406 195.132813 L 413.5 195.132813 L 413.5 199.269531 L 393.316406 199.269531 Z M 440.601563 191.089844 L 469.621094 191.089844 L 469.621094 193.1875 L 444.539063 195.707031 L 444.539063 206.394531 L 469.621094 209.320313 L 469.621094 211.015625 L 440.601563 211.015625 Z M 482.5 192.050781 L 486.730469 192.050781 L 485.769531 212.074219 L 483.367188 212.074219 Z M 501.335938 192.050781 C 510.90625 192.050781 520.476563 192.050781 530.046875 192.050781 L 527.417969 212.074219 L 525.015625 212.074219 L 525.707031 194.84375 L 505.675781 194.84375 L 506.371094 212.074219 L 503.96875 212.074219 Z M 542.839844 191.089844 L 571.863281 191.089844 L 571.863281 193.1875 L 546.777344 195.210938 L 546.777344 207.554688 L 567.792969 207.597656 L 567.792969 203.160156 L 555.742188 203.160156 L 555.742188 199.511719 L 578.515625 199.511719 L 578.515625 203.160156 L 571.605469 203.160156 L 571.605469 208.078125 L 571.585938 208.078125 L 571.585938 211.015625 L 542.839844 211.015625 Z M 246.726563 198.035156 C 248.359375 198.117188 250.773438 198.078125 251.175781 197.847656 C 257.527344 194.265625 252.882813 200.75 251.222656 203.371094 C 250.171875 205.027344 248.492188 206.417969 247.378906 207.785156 C 245.445313 210.167969 246.109375 214.636719 249.964844 211.390625 C 251.324219 210.242188 252.496094 208.710938 254.199219 208.710938 C 254.777344 208.710938 254.535156 211.566406 254.535156 212.179688 C 254.535156 213.964844 253.960938 218.730469 254.761719 220.132813 C 255.667969 221.71875 258.679688 222.785156 258.679688 219.90625 C 258.679688 215.125 257.378906 207.832031 258.921875 203.671875 C 259.9375 200.941406 262.667969 201.082031 263.046875 197.738281 C 263.382813 194.777344 259.574219 202.621094 259.574219 199.304688 C 258.832031 196.089844 262.992188 190.292969 256.664063 191.914063 C 255.234375 192.28125 249.25 194.390625 246.457031 195.789063 C 244.820313 196.613281 244.042969 197.898438 246.726563 198.035156 Z M 257.179688 185.136719 C 258.152344 183.734375 256.445313 183.625 255.308594 183.625 C 254.007813 183.625 253.1875 182.519531 254.375 181.609375 C 255.234375 180.945313 259.863281 181.0625 260.347656 182.039063 C 261.039063 183.421875 263.230469 182.230469 263.230469 184.34375 C 263.230469 186.054688 261.175781 184.929688 259.960938 185.683594 C 258.53125 186.566406 256.222656 188.734375 254.734375 188.734375 C 251.730469 188.734375 256.367188 185.503906 257.179688 185.136719 Z M 274.472656 183.222656 C 274.488281 181.179688 272.453125 179.496094 272.570313 178.371094 C 272.746094 176.699219 277.117188 179.765625 277.671875 180.101563 C 278.929688 180.867188 279.574219 181.074219 279.574219 182.703125 L 279.300781 192.558594 C 284.164063 192.1875 289.378906 193.277344 289.378906 197.476563 C 289.378906 198.074219 288.699219 201.074219 288.40625 201.695313 C 287.519531 203.589844 286.285156 208.898438 283.703125 208.898438 C 282.355469 208.898438 280.785156 209.046875 279.609375 208.628906 C 278.753906 208.328125 278.875 208.023438 278.84375 209.101563 L 278.535156 220.207031 C 278.441406 223.679688 274.289063 228.738281 274.300781 226.183594 L 274.371094 208.375 C 274.363281 207.308594 273.761719 207.175781 272.949219 207.164063 C 272.175781 207.152344 272.3125 207.15625 272.507813 207.929688 C 272.75 208.90625 273.046875 210.464844 271.816406 210.464844 C 269.511719 210.464844 268.9375 209.378906 267.761719 207.597656 C 265.339844 203.925781 264.753906 199.90625 264.613281 195.546875 C 264.554688 193.757813 265.246094 192.800781 266.25 194.769531 C 266.953125 197.007813 269.476563 202.429688 270.898438 204.242188 C 271.113281 204.515625 271.417969 205.058594 271.71875 205.710938 C 272.433594 205.675781 273.085938 205.785156 273.730469 205.949219 C 274.628906 206.179688 274.382813 206.007813 274.386719 205.113281 L 274.398438 201.753906 C 272.8125 202.144531 269.367188 202.921875 270.757813 201.15625 C 271.699219 200.472656 272.984375 199.554688 274.410156 198.8125 L 274.421875 195.8125 C 271.6875 196.78125 272.84375 196.933594 269.761719 196.664063 C 266.253906 196.664063 272.25 194.371094 272.410156 194.28125 C 272.957031 193.980469 273.644531 193.699219 274.433594 193.453125 Z M 279.0625 201.179688 C 279.710938 201.132813 280.351563 201.074219 280.976563 200.957031 C 281.980469 200.769531 283.632813 200.378906 282.855469 198.976563 C 282.089844 197.597656 280.660156 197.285156 279.167969 197.390625 L 279.246094 194.539063 C 281.554688 194.1875 285.011719 193.265625 284.90625 196.703125 C 284.8125 199.726563 282.582031 204.578125 281.21875 205.648438 C 280.769531 206 280.183594 206.074219 279.632813 206.140625 C 278.707031 206.25 278.925781 206.210938 278.949219 205.269531 Z M 303.542969 191.757813 C 303.542969 188.375 301.175781 192.769531 300.949219 194.046875 C 299.929688 199.792969 299.109375 205.160156 298.421875 210.914063 C 298.238281 212.453125 297.214844 214.019531 297.214844 215.625 C 297.214844 217.210938 298.472656 222.144531 301.027344 219.589844 C 302.640625 217.976563 302.933594 209.402344 302.933594 206.855469 C 302.933594 202.894531 303.730469 196.449219 303.542969 191.757813 Z M 305.527344 193.589844 C 304.6875 194.800781 308.144531 194.199219 309.03125 194.199219 C 309.492188 194.199219 309.957031 194.125 310.425781 193.996094 C 310.703125 194.433594 311.054688 194.882813 311.167969 195.113281 C 311.453125 195.679688 311.582031 196.660156 311.613281 197.886719 C 310.773438 198.023438 310.332031 198.175781 309.511719 198.492188 C 307.09375 199.429688 307.574219 199.46875 305.722656 198.5625 C 304.78125 198.105469 304.046875 198.363281 304.230469 200.984375 C 304.425781 203.734375 304.515625 205.167969 305.84375 207.007813 C 307.550781 209.371094 309.800781 210.816406 309.800781 206.703125 C 309.800781 205.957031 310.78125 206.648438 311.652344 207.089844 C 311.589844 207.726563 311.527344 208.296875 311.472656 208.761719 C 311.394531 209.441406 310.808594 211.503906 310.789063 213.027344 C 309.671875 213.402344 308.597656 213.835938 307.585938 214.328125 C 305.246094 215.472656 303.984375 214.996094 305.90625 217.304688 C 307.988281 218.683594 309.867188 217.726563 311.777344 216.464844 C 313.46875 215.347656 318.238281 214.621094 314.597656 217.683594 C 313.621094 218.507813 311.722656 219.371094 310.9375 220.351563 C 310.855469 220.460938 310.820313 221.683594 311.777344 220.886719 C 314.558594 218.578125 316.929688 218.085938 320.011719 216.617188 C 325.714844 213.902344 323.25 216.609375 325.960938 219.972656 C 327.898438 222.375 330.910156 222.09375 333.289063 221.875 C 335.691406 221.652344 342.371094 219.480469 340.523438 216.539063 C 340.1875 216 336.066406 211.523438 333.53125 209.292969 C 330.863281 206.945313 331.691406 208.515625 332.683594 210.417969 C 333.136719 211.28125 333.605469 212.109375 333.816406 212.347656 C 335.777344 214.566406 336.691406 217.914063 332.519531 217.914063 C 326.902344 217.914063 325.390625 210.203125 324.207031 205.484375 C 321.753906 195.707031 326.875 189.339844 327.5625 183.371094 C 327.910156 180.34375 306.230469 184.699219 304.230469 185.8125 C 297.960938 189.292969 301.492188 189.722656 306.820313 188.097656 C 308.351563 187.632813 310.164063 187.078125 311.625 186.574219 C 313.421875 185.953125 321.75 183.34375 321.613281 185.964844 C 321.414063 189.90625 321.25 193.414063 321.1875 196.726563 C 321.003906 196.574219 320.738281 196.484375 320.375 196.484375 C 319.335938 196.484375 317.445313 196.519531 315.351563 196.722656 C 315.394531 195.871094 315.417969 195.238281 315.410156 194.925781 C 315.394531 193.777344 313.847656 193.273438 312.675781 193.023438 C 313.707031 192.445313 314.679688 191.742188 315.515625 191.148438 C 320.644531 187.507813 318.378906 185.578125 313.683594 186.800781 C 311.027344 187.496094 310.726563 192.289063 305.527344 193.589844 Z M 321.160156 199.320313 C 321.15625 200.671875 321.171875 202 321.214844 203.324219 C 320.941406 203.148438 320.417969 203.042969 319.566406 203.042969 C 318.886719 203.042969 320.042969 201.449219 320.050781 201.441406 C 320.222656 201.242188 320.777344 200.316406 321.160156 199.320313 Z M 321.242188 204.164063 C 321.292969 205.414063 321.363281 206.664063 321.460938 207.921875 C 321.460938 210.152344 322.832031 211.035156 320.472656 211.203125 C 317.960938 211.382813 315.441406 211.753906 313.054688 212.363281 C 313.304688 211.308594 313.53125 209.976563 313.734375 208.523438 C 313.972656 206.847656 314.125 206.398438 316.09375 206.398438 C 317.753906 206.398438 320.480469 205.140625 321.242188 204.164063 Z M 309.230469 206.160156 C 309.230469 205.363281 308.964844 204.164063 309.910156 204.164063 C 310.460938 204.164063 311.9375 204.917969 311.9375 204.027344 C 311.9375 202.929688 312.429688 199.960938 311.125 199.960938 C 309.757813 199.960938 305.421875 199.390625 306.1875 201.519531 C 306.4375 202.21875 307.097656 202.261719 307.371094 202.808594 C 307.542969 203.152344 307.851563 203.496094 308.015625 203.859375 C 308.25 204.382813 308.421875 205.058594 308.421875 205.652344 C 308.421875 206.097656 308.996094 206.84375 309.230469 206.160156 Z M 316.589844 199.894531 C 316.785156 199.503906 317.222656 199.164063 317.269531 198.710938 C 317.5 196.449219 314.8125 199.164063 314.8125 200.933594 C 314.8125 202.074219 316.445313 200.085938 316.589844 199.894531 Z M 316.589844 199.894531 "/>
</g>
</svg>
